<svg width="333" height="221" viewBox="0 0 333 221" fill="none" xmlns="http://www.w3.org/2000/svg">
<circle cx="97.9526" cy="69.5" r="58.5" fill="#F7F9FB"/>
<path d="M182.897 10.4116C184.943 4.29838 190.899 0.372609 197.324 0.902541L319.604 10.9886C326.865 11.5875 332.453 17.6554 332.453 24.9412V163.323L327.076 166L186.381 145.473L181.453 14.7258L182.897 10.4116Z" fill="#C5C5C7"/>
<path d="M181.453 18.2091C181.453 10.0208 188.449 3.58022 196.61 4.25694L313.61 13.9595C320.868 14.5615 326.453 20.6282 326.453 27.9117V166L181.453 148.186V18.2091Z" fill="#D9D9D9"/>
<path d="M193.453 135.717C193.453 133.222 195.654 131.301 198.126 131.639L216.895 134.206C218.933 134.485 220.453 136.226 220.453 138.283C220.453 140.778 218.251 142.699 215.779 142.361L197.011 139.794C194.972 139.515 193.453 137.774 193.453 135.717Z" fill="#C5C5C7"/>
<path d="M289.453 130.281C289.453 128.008 291.445 126.25 293.701 126.533L313.144 128.97C315.035 129.207 316.453 130.814 316.453 132.719C316.453 134.992 314.46 136.75 312.205 136.467L292.761 134.03C290.871 133.793 289.453 132.186 289.453 130.281Z" fill="#C5C5C7"/>
<path d="M238.813 108.028C239.165 108.007 239.463 108.285 239.467 108.637L239.577 118.659C239.58 118.988 239.325 119.262 238.996 119.282C238.644 119.303 238.346 119.025 238.342 118.673L238.233 108.651C238.229 108.322 238.485 108.048 238.813 108.028Z" fill="#0098EA"/>
<path d="M241.614 110.475C241.976 110.425 242.301 110.699 242.312 111.064L242.44 115.078C242.45 115.392 242.221 115.664 241.91 115.706C241.548 115.756 241.223 115.482 241.212 115.117L241.084 111.103C241.074 110.789 241.303 110.518 241.614 110.475Z" fill="#0098EA"/>
<path d="M311.152 107.186C311.515 107.149 311.83 107.434 311.829 107.799L311.818 111.815C311.817 112.13 311.578 112.393 311.266 112.425C310.903 112.462 310.588 112.177 310.589 111.812L310.6 107.796C310.601 107.481 310.839 107.218 311.152 107.186Z" fill="#0098EA"/>
<path d="M200.399 99.134C200.762 99.0969 201.077 99.3822 201.076 99.747L201.065 103.763C201.064 104.077 200.826 104.341 200.513 104.373C200.15 104.41 199.835 104.124 199.836 103.76L199.847 99.7436C199.848 99.4291 200.086 99.166 200.399 99.134Z" fill="#0098EA"/>
<path d="M202.238 99.0794C202.585 99.0712 202.871 99.3512 202.87 99.6987L202.813 119.296C202.812 119.63 202.544 119.903 202.21 119.911C201.862 119.919 201.576 119.639 201.577 119.292L201.634 99.6951C201.635 99.3603 201.903 99.0872 202.238 99.0794Z" fill="#0098EA"/>
<path fill-rule="evenodd" clip-rule="evenodd" d="M273.228 46.9382C273.081 47.2978 273.006 47.6825 273.006 48.0709V70.658C273.006 71.3265 272.782 71.976 272.371 72.5031L265.927 80.7648C265.323 81.5387 265.136 82.5589 265.426 83.4965L276.079 117.934C276.592 119.593 278.402 120.471 280.022 119.847L313.53 106.947C314.689 106.501 315.453 105.388 315.453 104.147V37.3275C315.453 35.5605 313.933 34.1763 312.174 34.3405L278.839 37.4516C277.726 37.5555 276.762 38.2703 276.34 39.3059L273.228 46.9382ZM299.814 64.4474C299.814 62.2156 297.464 60.7652 295.469 61.7659L292.533 63.2388C291.519 63.7477 290.878 64.7854 290.878 65.9203V92.1471C290.878 94.3257 293.127 95.7778 295.113 94.8813L298.049 93.5557C299.124 93.0705 299.814 92.0007 299.814 90.8215V64.4474Z" fill="#0098EA"/>
<path d="M225.197 59.0102C225.197 59.3907 225.27 59.7678 225.411 60.1212L229.945 71.4955C230.694 73.3726 233.046 73.9879 234.618 72.7177L244.991 64.3342C246.316 63.2632 248.288 63.6558 249.102 65.1527C249.744 66.3348 249.429 67.8088 248.359 68.6246L229.059 83.3409C228.315 83.9084 227.878 84.7906 227.878 85.7265V105.781C227.878 107.1 228.739 108.264 230 108.65L265.096 119.399C267.36 120.092 269.498 118.012 268.866 115.73L260.231 84.5435C259.695 82.6061 257.442 81.7342 255.741 82.8057L243.461 90.5419C241.932 91.5048 239.942 90.4064 239.942 88.5999C239.942 87.8368 240.321 87.1235 240.954 86.6969L266.014 69.7981C266.763 69.2932 267.244 68.4777 267.325 67.5781L270.047 37.1432C270.199 35.4466 268.909 33.9642 267.208 33.8797L228.346 31.9495C226.633 31.8644 225.197 33.2305 225.197 34.9458V59.0102Z" fill="#0098EA"/>
<path d="M190.813 57.9184C190 58.9153 189.913 60.3195 190.597 61.4091L195.694 69.531C196.376 70.6187 197.906 70.7605 198.777 69.8168C200.31 68.1559 202.967 69.9983 201.949 72.0164L191.008 93.7095C190.187 95.3379 190.996 97.3163 192.723 97.9017L218.553 106.657C220.499 107.316 222.516 105.87 222.516 103.816V33C222.516 31.3431 221.173 30 219.516 30H215.005C214.103 30 213.25 30.4054 212.68 31.104L190.813 57.9184Z" fill="#0098EA"/>
<path fill-rule="evenodd" clip-rule="evenodd" d="M275.232 43.7413C275.083 44.104 275.006 44.4925 275.006 44.8848V67.1908C275.006 67.8649 274.779 68.5194 274.361 69.0487L267.943 77.1858C267.33 77.9635 267.14 78.9939 267.436 79.9392L278.076 113.958C278.591 115.607 280.391 116.481 282.006 115.866L315.52 103.105C316.684 102.662 317.453 101.547 317.453 100.302V34.2798C317.453 32.5141 315.935 31.1302 314.177 31.2925L280.833 34.3702C279.723 34.4727 278.761 35.1829 278.336 36.214L275.232 43.7413ZM301.814 61.0984C301.814 58.8723 299.475 57.4216 297.481 58.411L294.545 59.8677C293.524 60.3742 292.878 61.4155 292.878 62.5551V88.4341C292.878 90.6073 295.117 92.0595 297.101 91.1734L300.037 89.8624C301.118 89.3797 301.814 88.3067 301.814 87.123V61.0984Z" fill="white"/>
<path d="M227.197 55.6792C227.197 56.0635 227.271 56.4443 227.415 56.8008L231.946 68.0399C232.697 69.9034 235.032 70.5161 236.601 69.2617L247.023 60.9312C248.336 59.8815 250.279 60.269 251.089 61.7424C251.737 62.9224 251.421 64.3997 250.346 65.2104L231.072 79.7451C230.32 80.312 229.878 81.1989 229.878 82.1404V101.917C229.878 103.239 230.743 104.405 232.008 104.788L267.093 115.415C269.359 116.101 271.489 114.015 270.851 111.735L262.234 80.9522C261.694 79.0257 259.456 78.1568 257.758 79.2147L245.423 86.8999C243.907 87.845 241.942 86.7543 241.942 84.9672C241.942 84.206 242.322 83.4951 242.956 83.0727L268.003 66.3677C268.758 65.8642 269.245 65.0459 269.327 64.1421L272.043 34.1034C272.197 32.4051 270.906 30.9204 269.203 30.8368L230.345 28.928C228.632 28.8439 227.197 30.2097 227.197 31.9244V55.6792Z" fill="white"/>
<path d="M192.837 54.5824C192.011 55.5837 191.923 57.0024 192.618 58.0982L197.699 66.1051C198.382 67.1811 199.897 67.322 200.767 66.3903C202.306 64.7404 204.95 66.5928 203.924 68.6031L193.034 89.9581C192.201 91.5912 193.015 93.5828 194.753 94.1655L220.563 102.818C222.506 103.469 224.516 102.023 224.516 99.9731V30C224.516 28.3431 223.173 27 221.516 27H216.995C216.099 27 215.25 27.4003 214.68 28.0915L192.837 54.5824Z" fill="white"/>
<path d="M193.897 16.0346C193.758 13.631 195.767 11.6547 198.168 11.834L217.094 13.2478C219.084 13.3964 220.656 14.9951 220.772 16.9869C220.911 19.3905 218.902 21.3668 216.501 21.1875L197.575 19.7737C195.585 19.6251 194.013 18.0265 193.897 16.0346Z" fill="#C5C5C7"/>
<path d="M80.758 47.1737V46.0263L79.6106 46.6L77.8896 48.8947L76.7422 51.7632C76.7422 51.7632 77.3071 52.6609 77.8896 52.9105C78.5073 53.1753 80.1843 52.9105 80.1843 52.9105C80.1843 52.9105 81.3919 52.6878 82.479 52.3368C83.9092 51.8751 85.9211 50.6158 85.9211 50.6158L85.3475 49.4684L84.2001 48.8947H81.9053L80.758 47.1737Z" fill="#8A8A8E"/>
<path d="M96.8217 62.6632V58.6474L96.248 56.9263L97.969 54.6316L98.5427 53.4842L99.6901 51.1895L102.558 48.3211V45.4526L100.264 44.3053L97.969 42.0105V39.7158V39.1421H91.0848L88.7901 39.7158L87.069 42.0105L86.4953 44.3053L87.069 45.4526L86.4953 46.6L84.7743 47.7474V46.0263L84.2006 44.8789L83.0532 44.3053C83.0532 44.3053 82.3309 44.1636 81.9059 44.3053L81.9058 44.3053C81.3046 44.5057 80.1844 44.8791 80.1848 47.1737C80.2663 47.9773 80.6794 48.419 81.3322 48.8947C81.9047 49.312 82.3502 49.3805 83.0532 49.4684C83.4979 49.524 84.2006 49.4684 84.2006 49.4684C84.2006 49.4684 84.9746 49.7081 85.348 50.0421C85.5329 50.2076 85.5415 51.8333 85.9217 52.9105C86.2551 53.8553 87.069 55.2053 87.069 55.2053V55.7789V59.2211L91.0848 62.6632H96.8217Z" fill="#D9D9D9"/>
<path d="M92.8052 28.2421C94.1589 29.065 95.6736 31.1105 95.6736 31.1105L92.8052 33.9789L88.7894 36.8474L84.7736 43.1579L82.4789 44.3053L80.1841 46.6C80.1841 46.6 79.0467 47.5708 78.4631 48.321C77.5404 49.5074 76.742 51.7632 76.742 51.7632C76.742 51.7632 76.7314 51.4133 76.742 51.1895C76.786 50.2668 77.3157 48.8947 77.3157 48.8947C77.3157 48.8947 77.9406 47.4549 78.4631 46.6C79.0472 45.6442 80.1841 44.3053 80.1841 44.3053L79.0368 42.0105C78.4631 40.8632 78.3506 40.6904 77.8894 39.1421C77.4417 37.6391 77.5874 36.6652 77.8894 35.1263C78.218 33.452 78.6053 32.4893 79.6105 31.1105C80.9302 29.3001 82.0931 28.4302 84.1999 27.6684C85.2742 27.28 85.9285 27.1707 87.0684 27.0947C89.348 26.9428 90.8528 27.0554 92.8052 28.2421Z" fill="#C5C5C7"/>
<path d="M101.411 29.3895C99.1158 29.3895 97.9736 29.5445 95.6737 30.5368C92.3251 31.9817 90.682 34.1605 88.2158 36.8474C85.7311 39.5544 82.479 44.3053 82.479 44.3053C82.479 44.3053 83.6991 44.378 84.2001 44.8789C84.9921 45.671 84.7737 47.7474 84.7737 47.7474C84.7737 47.7474 86.4748 47.19 87.0685 46.0263C87.5776 45.0285 86.7925 44.2435 87.0685 43.1579C87.3904 41.8918 87.7169 41.0352 88.7895 40.2895C89.9085 39.5116 92.2316 39.7158 92.2316 39.7158H109.442C111.437 39.7158 111.737 38.5412 111.737 37.421C111.737 36.3009 111.502 35.2958 110.016 34.5526C108.994 34.0418 106.574 34.5526 106.574 34.5526C106.574 34.5526 106.76 32.2416 106 31.1105C104.932 29.5219 103.325 29.3895 101.411 29.3895Z" fill="#8A8A8E"/>
<path d="M99.6895 59.2755C98.981 59.984 98.5421 61.5703 98.5421 61.5703C98.5421 61.5703 100.677 60.612 101.984 60.9966C103.833 61.5404 104.323 63.1593 104.853 65.0124C106 69.0282 106.618 71.3 106.574 75.3387C106.536 78.7065 106.115 81.6492 105.426 83.944C104.936 85.5781 104.355 86.7706 103.132 87.9597C102.552 88.5227 101.411 89.1071 101.411 89.1071L100.837 82.2229L96.821 91.4018L97.3947 100.007C97.3947 100.007 98.3551 100.883 99.1158 101.154C100.171 101.531 101.984 101.154 101.984 101.154V93.1229C101.984 93.1229 103.886 92.2806 104.853 91.4018C106.048 90.3151 106.403 89.3938 107.147 87.9597C109.438 83.5441 110.016 80.3131 110.016 75.3387C110.016 71.3229 109.519 67.7138 108.295 63.865C107.535 61.4781 106.574 60.4229 105.426 59.2755C104.718 58.567 104.004 58.2527 103.132 58.1282C101.729 57.9278 100.691 58.2736 99.6895 59.2755Z" fill="#8A8A8E"/>
<path d="M103.705 47.7474C104.187 44.6481 103.705 39.7158 103.705 39.7158H97.9684C97.9684 39.7158 96.9742 42.814 97.9684 44.3053C98.3199 44.8325 98.61 45.0708 99.1157 45.4526C100.079 46.1797 102.055 45.3956 101.984 46.6C101.955 47.1001 101.745 47.374 101.41 47.7474C100.649 48.5987 98.542 48.3211 98.542 48.3211C98.542 48.3211 98.294 50.7865 97.9684 52.3368C97.7785 53.2408 97.8466 53.826 97.3947 54.6316C96.9296 55.4606 96.4989 55.881 95.6736 56.3526C94.6818 56.9194 93.9476 56.9263 92.8052 56.9263C91.6628 56.9263 89.9368 56.3526 89.9368 56.3526L87.0684 55.2053V55.7789C87.0684 55.7789 88.0207 56.9409 88.7894 57.5C89.5997 58.0893 90.1393 58.3139 91.0841 58.6474C92.1614 59.0276 92.8102 59.2211 93.9526 59.2211C95.0949 59.2211 96.821 58.6474 96.821 58.6474V56.9263C96.821 56.9263 97.1446 56.5472 97.3947 56.3526C98.2964 55.6513 99.3062 55.8293 100.263 55.2053C100.794 54.8591 101.984 53.4842 101.984 53.4842C101.984 53.4842 102.18 53.2647 102.558 52.3368C103.255 50.6259 103.421 49.5729 103.705 47.7474Z" fill="#C5C5C7"/>
<path d="M106 85.0368C102.796 86.1439 108.295 80.499 108.295 80.499L114.606 79.3002L114.606 84.4634C114.606 88.4792 115.572 91.6296 118.621 90.2002C122.901 88.1945 122.371 88.3833 122.371 88.3833C122.371 88.3833 125.458 86.8562 128.868 83.4935C130.796 81.5928 130.914 79.3646 133.368 78.2208C135.555 77.2013 137.416 76.717 139.537 77.8677C140.782 78.5435 141.622 79.1436 142.035 80.4991C142.327 81.4575 142.135 82.0759 141.968 83.0638C141.756 84.3133 142.086 86.4462 140.862 86.1148C140.379 85.9838 140.295 85.5602 139.856 85.3187C137.884 84.2336 136.487 86.3444 134.417 87.2306C133.387 87.6716 132.783 87.8749 131.819 88.4464C130.837 89.0292 130.375 89.4925 129.464 90.1817C125.39 93.264 122.914 96.0939 118.621 98.2318C114.329 100.37 113.458 99.9526 110.016 99.9526C108.448 99.9526 107.147 96.5105 106.574 92.4947C106.192 89.8241 108.55 84.1559 106 85.0368Z" fill="#C5C5C7"/>
<path d="M112.311 131.505C112.207 123.885 111.737 112 111.737 112L108.868 110.279L81.9052 115.442C81.9052 115.442 81.6825 122.79 81.9052 127.489C82.129 132.21 82.84 134.816 83.0526 139.537C83.4562 148.5 83.4903 153.522 83.0526 162.484C82.5931 171.893 81.9052 176.826 80.7579 186.579C80.0829 192.316 78.4631 203.789 78.4631 203.789H89.3631C89.3631 203.789 90.0883 199.948 90.5105 197.479C91.9204 189.234 92.5047 184.572 93.3789 176.253C94.3649 166.871 94.65 161.581 95.1 152.158C95.6131 141.414 95.6737 132.079 95.6737 124.621C95.6737 123.037 96.9579 121.753 98.5421 121.753C100.126 121.753 101.411 123.037 101.411 124.621V131.505C101.411 131.505 101.575 144.094 101.411 152.158C101.209 162.024 101.013 167.561 100.263 177.4C99.4753 187.736 97.3947 203.789 97.3947 203.789H107.147C107.147 203.789 109.568 186.341 110.589 175.105C111.545 164.597 112.054 158.69 112.311 148.142C112.468 141.647 112.398 138.002 112.311 131.505Z" fill="#8A8A8E"/>
<path d="M144.22 70.903C144.643 70.4851 145.334 70.5252 145.705 70.989L149.025 75.1396C149.35 75.5457 149.31 76.1329 148.932 76.4904L139.518 85.4071C139.041 85.8585 138.266 85.736 137.952 85.1596L135.461 80.5894C135.248 80.1983 135.319 79.7134 135.636 79.4001L144.22 70.903Z" fill="#0098EA"/>
<path d="M106.27 61.672C105.369 61.874 104.864 62.2238 104.266 62.9279C103.541 63.7817 103.262 64.5252 103.34 65.6427C103.505 68.0023 103.824 69.5223 104.202 71.9984C104.681 75.1304 105.598 79.9906 105.598 79.9906C105.598 79.9906 107.813 80.1289 109.226 80.0161C111.248 79.8545 114.313 78.9633 114.313 78.9633L113.095 71.5165L112.575 68.0659C112.575 68.0659 112.193 65.9504 111.51 64.7929C110.745 63.4988 110.189 62.6436 108.808 62.0526C107.886 61.6587 107.248 61.4529 106.27 61.672Z" fill="#8A8A8E" stroke="#8A8A8E"/>
<path d="M77.3158 62.6632C76.8321 63.0725 76.1685 63.8105 76.1685 63.8105C76.1685 63.8105 77.6576 63.9323 78.4632 64.3842C79.2922 64.8492 79.6475 65.3208 80.1842 66.1053C80.9844 67.2747 81.1063 68.1484 81.3316 69.5474C81.6896 71.7703 80.7579 75.2842 80.7579 75.2842L79.6106 82.7421L80.1842 83.8895C80.1842 83.8895 80.4974 91.9185 80.7579 97.0842C81.119 104.244 81.3316 115.442 81.3316 115.442L111.163 111.426C111.163 111.426 111.24 107.579 111.163 105.116C111.067 102.039 110.898 100.289 110.608 97.281L110.59 97.0842C110.243 93.4883 109.442 87.9053 109.442 87.9053C109.442 87.9053 108.814 81.6031 108.295 77.5789C107.89 74.4366 107.887 72.6687 107.147 69.5474C106.722 67.7497 106.193 66.6386 105.426 64.9579C104.756 63.4881 104.274 62.6582 103.132 61.5158C101.989 60.3734 101.27 59.5539 99.6895 59.221C98.8126 59.0364 97.3948 59.221 97.3948 59.221V62.6632C97.3948 62.6632 95.6687 63.2343 94.5264 63.2368C92.8953 63.2405 91.9579 62.8413 90.5106 62.0895C88.9578 61.2829 87.0685 59.221 87.0685 59.221L83.0527 60.3684C83.0527 60.3684 79.1578 61.1045 77.3158 62.6632Z" fill="#F7F9FB" stroke="#8A8A8E"/>
<path d="M78.4631 60.3684C77.7547 61.0769 77.3158 62.6632 77.3158 62.6632C77.3158 62.6632 79.4505 61.7049 80.7579 62.0895C82.6068 62.6333 83.6705 64.2522 84.2 66.1053C85.3474 70.1211 85.9658 72.3929 85.921 76.4316C85.8838 79.7994 85.3474 83.3158 84.2 85.6105C83.4369 87.1366 83.1288 87.8635 81.9053 89.0526C81.326 89.6156 80.1842 90.2 80.1842 90.2L79.6105 83.3158L75.5947 92.4947L76.1684 101.1C76.1684 101.1 77.1287 101.976 77.8895 102.247C78.9444 102.624 80.7579 102.247 80.7579 102.247V94.2158C80.7579 94.2158 82.6597 93.3735 83.6263 92.4947C84.8217 91.408 86.3245 89.3393 87.0684 87.9053C88.2589 85.6105 89.3631 81.406 89.3631 76.4316C89.3631 72.4158 88.8667 68.8067 87.6421 64.9579C86.8826 62.571 85.921 61.5158 84.7737 60.3684C84.0652 59.66 82.7774 59.3456 81.9053 59.2211C80.5026 59.0207 79.4651 59.3665 78.4631 60.3684Z" fill="#8A8A8E"/>
<path d="M69.2843 89.6263C69.6397 86.2547 70.4316 81.0211 70.4316 81.0211L79.6106 83.3158C79.6106 83.3158 77.874 88.8422 77.3159 92.4947C76.8071 95.8241 76.7401 97.732 76.7422 101.1C76.7451 105.826 77.8895 113.147 77.8895 113.147C77.8895 113.147 78.584 120.681 80.1843 125.195C81.0888 127.746 83.0567 128.798 83.0527 131.505C83.0492 133.918 82.6992 135.809 80.758 137.242C79.618 138.084 78.7186 138.59 77.3159 138.389C76.324 138.248 75.8449 137.812 75.0211 137.242C73.9791 136.521 71.9077 135.915 72.7264 134.947C73.05 134.565 73.469 134.669 73.8737 134.374C75.6928 133.047 74.3729 130.887 74.4474 128.637C74.4845 127.517 74.5567 126.883 74.4474 125.768C74.336 124.632 74.1119 124.017 73.8737 122.9C72.8089 117.903 70.4316 110.279 70.4316 110.279C70.4316 110.279 68.9051 104.389 68.7106 100.526C68.6317 98.96 68.6627 98.0781 68.7106 96.5105C68.793 93.814 69.0014 92.3092 69.2843 89.6263Z" fill="#D9D9D9"/>
<path d="M77.3159 63.8105C76.3963 63.7235 75.8077 63.8998 75.0212 64.3842C74.0674 64.9716 73.5718 65.5922 73.3001 66.6789C72.7264 68.9737 72.5595 70.5179 72.1527 72.9895C71.6383 76.1158 71.0054 81.0211 71.0054 81.0211C71.0054 81.0211 73.0695 81.8385 74.4475 82.1684C76.4205 82.6408 79.6106 82.7421 79.6106 82.7421L80.758 75.2842L81.3317 71.8421C81.3317 71.8421 81.6233 69.7122 81.3317 68.4C81.0057 66.9329 80.7417 65.9476 79.6106 64.9579C78.8566 64.2981 78.3134 63.9049 77.3159 63.8105Z" fill="#8A8A8E" stroke="#8A8A8E"/>
<path d="M144.382 71.6299C144.703 71.3269 145.216 71.3666 145.488 71.7155L148.271 75.2942C148.508 75.5993 148.475 76.0346 148.194 76.2999L139.432 84.5748C139.084 84.9037 138.521 84.8262 138.274 84.4154L135.887 80.4357C135.705 80.1333 135.759 79.7454 136.016 79.5037L144.382 71.6299Z" fill="#F7F9FB" stroke="#0098EA" stroke-width="0.5"/>
<path d="M136.405 78.1526C135.573 77.8198 135.258 78.1526 135.258 78.1526L134.111 79.3V81.0211L135.832 80.4474C135.832 80.4474 138.409 81.8414 138.7 81.5947C139.122 81.2369 139.201 80.3746 138.7 79.8737C138.126 79.3 137.288 78.5056 136.405 78.1526Z" fill="#C5C5C7"/>
<path d="M93.3789 43.7316C92.6704 43.7316 92.2316 43.1579 91.0842 43.7316C90.8838 43.8318 90.5105 44.3053 90.5105 44.3053C90.5105 44.3053 90.5105 43.7316 91.0842 43.1579C91.6579 42.5842 94.1255 41.7827 94.5263 42.5842C94.7267 42.985 94.5263 43.7316 94.5263 43.7316H93.3789Z" fill="#8A8A8E"/>
<path d="M101.984 43.4959C101.276 43.4959 100.837 42.9222 99.6894 43.4959C99.489 43.5961 99.1157 44.0696 99.1157 44.0696C99.1157 44.0696 99.1157 43.4959 99.6894 42.9222C100.263 42.3485 102.731 41.547 103.132 42.3485C103.332 42.7493 103.132 43.4959 103.132 43.4959H101.984Z" fill="#8A8A8E"/>
<rect x="68.137" y="210.674" width="76.8737" height="2.29474" rx="1.14737" fill="#8A8A8E"/>
<path d="M89.9055 207.232C89.8225 205.651 89.4437 203.216 89.4437 203.216L85.7494 202.642L82.0552 203.789C82.0552 203.789 81.2451 204.56 80.6698 204.937C79.1989 205.9 78.1764 206.084 76.5138 206.084C75.1284 206.084 74.3432 206.285 73.7431 206.658C72.8195 207.232 72.5645 208.576 72.8195 209.526C72.9808 210.127 73.7431 210.674 73.7431 210.674H89.9055C89.9055 210.674 89.9759 208.573 89.9055 207.232Z" fill="#8A8A8E"/>
<circle cx="131.242" cy="214.116" r="2.29474" fill="#8A8A8E"/>
<circle cx="134.111" cy="215.837" r="2.36842" fill="#C5C5C7" stroke="#8A8A8E"/>
<path d="M97.3946 207.232C97.4977 205.651 97.9683 203.216 97.9683 203.216L102.558 202.642L107.147 203.789C107.147 203.789 108.154 204.56 108.868 204.937C110.696 205.9 111.966 206.084 114.031 206.084C115.753 206.084 116.728 206.285 117.474 206.658C118.621 207.232 118.938 208.576 118.621 209.526C118.421 210.127 117.474 210.674 117.474 210.674H97.3946C97.3946 210.674 97.3071 208.573 97.3946 207.232Z" fill="#8A8A8E"/>
<circle cx="80.3159" cy="210.674" r="9.17895" fill="#D9D9D9"/>
<circle cx="71.137" cy="204.937" r="9.17895" fill="#D9D9D9"/>
<circle cx="65.3999" cy="211.821" r="9.17895" fill="#D9D9D9"/>
<circle cx="59.6632" cy="198.053" r="10.3263" fill="#D9D9D9"/>
<circle cx="44.1737" cy="198.626" r="13.1947" fill="#D9D9D9"/>
<circle cx="48.7631" cy="207.805" r="13.1947" fill="#D9D9D9"/>
<circle cx="31.5526" cy="202.068" r="7.45789" fill="#D9D9D9"/>
<circle cx="38.4369" cy="211.247" r="7.45789" fill="#D9D9D9"/>
<circle cx="26.3895" cy="210.674" r="10.3263" fill="#D9D9D9"/>
<circle cx="55.0736" cy="184.284" r="1.14737" fill="#D9D9D9"/>
<circle cx="24.0946" cy="195.758" r="1.14737" fill="#D9D9D9"/>
<circle cx="8.03165" cy="195.758" r="1.14737" fill="#D9D9D9"/>
<circle cx="1.14737" cy="201.495" r="1.14737" fill="#D9D9D9"/>
<circle cx="14.9157" cy="206.084" r="3.44211" fill="#D9D9D9"/>
<circle cx="45.3212" cy="181.416" r="1.72105" fill="#D9D9D9"/>
<path d="M147.453 59C147.453 59 147.673 61.06 148.533 61.9196C149.393 62.7793 151.453 63 151.453 63C151.453 63 149.393 63.2207 148.533 64.0804C147.673 64.94 147.453 67 147.453 67C147.453 67 147.232 64.94 146.372 64.0804C145.513 63.2207 143.453 63 143.453 63C143.453 63 145.513 62.7793 146.372 61.9196C147.232 61.06 147.453 59 147.453 59Z" fill="#0098EA"/>
<path d="M160.953 50C160.953 50 161.256 53.09 162.438 54.3795C163.62 55.6689 166.453 56 166.453 56C166.453 56 163.62 56.3311 162.438 57.6205C161.256 58.91 160.953 62 160.953 62C160.953 62 160.649 58.91 159.467 57.6205C158.285 56.3311 155.453 56 155.453 56C155.453 56 158.285 55.6689 159.467 54.3795C160.649 53.09 160.953 50 160.953 50Z" fill="#0098EA"/>
<path d="M152.453 35C152.453 35 152.949 39.3774 154.883 41.2042C156.818 43.031 161.453 43.5 161.453 43.5C161.453 43.5 156.818 43.969 154.883 45.7958C152.949 47.6226 152.453 52 152.453 52C152.453 52 151.956 47.6226 150.022 45.7958C148.088 43.969 143.453 43.5 143.453 43.5C143.453 43.5 148.088 43.031 150.022 41.2042C151.956 39.3774 152.453 35 152.453 35Z" fill="#0098EA"/>
<path d="M165.953 0C165.953 0 167.194 11.8449 172.03 16.7879C176.865 21.731 188.453 23 188.453 23C188.453 23 176.865 24.269 172.03 29.2121C167.194 34.1551 165.953 46 165.953 46C165.953 46 164.711 34.1551 159.876 29.2121C155.04 24.269 143.453 23 143.453 23C143.453 23 155.04 21.731 159.876 16.7879C164.711 11.8449 165.953 0 165.953 0Z" fill="#0098EA"/>
</svg>
